# xmcd
#
# Track frame offsets:
# 150
# 31890
# 57026
# 75977
# 95380
# 121443
# 147527
#
# Disc length: 2262 seconds
#
#
# Revision: 0
# Processed by: cddbd v1.5.2PL0 Copyright (c) Steve Scherf et al.
# Submitted via: FreeRIP 2.945 
#
DISCID=5208d407
DTITLE=Bobby Nunn - Second To None
DYEAR=1900
DGENRE=Funk
TTITLE0=She's Just A Groupie
TTITLE1=Get It While You Can
TTITLE2=Got To Get Up On It
TTITLE3=Sexy Sassy
TTITLE4=The Party's Over
TTITLE5=You Need Non-Stop Lovin'
TTITLE6=Never Seen Anything Like You
EXTD=
EXTT0=
EXTT1=
EXTT2=
EXTT3=
EXTT4=
EXTT5=
EXTT6=
PLAYORDER=
